<svg xmlns="http://www.w3.org/2000/svg" viewBox="0 0 203 55"><path fill="#fff" d="M138.45 6.39h-9.3v10.18h-12.71V6.39h-9.31v10.18h-8.61v8.11h8.61v29.43h9.31V24.68h12.71v29.43h9.3V24.68h8.61v-8.11h-8.61zM85.89 31.08h-16a8.13 8.13 0 0 1 8.26-7.57c4.58 0 7.5 3.37 7.78 7.57zm9.44 17.25l-5.69-5.64a14.12 14.12 0 0 1-9.86 4.47 10 10 0 0 1-10.35-9.28h26.73c1.18-13.47-7.29-22.2-18.19-22.2-11.18 0-18.47 9.07-18.47 19.8C59.5 47.23 68.25 55 79.36 55c6.25 0 12.36-2.47 16-6.67zm65.13 5.78V1.1h-9.3v53zm-149.35 0V17.94h-9.3v36.17zm45.62 0v-8.8H18.12v8.8zm0-43.32V2H18.82v8.8zM0 6.39a6.46 6.46 0 0 0 12.92 0A6.46 6.46 0 0 0 0 6.39zm192.61 24.69h-16a8.14 8.14 0 0 1 8.27-7.57c4.58 0 7.5 3.37 7.77 7.57zm9.45 17.25l-5.7-5.64a14.07 14.07 0 0 1-9.86 4.47 10 10 0 0 1-10.34-9.28h26.73c1.18-13.47-7.29-22.2-18.19-22.2-11.18 0-18.47 9.07-18.47 19.8C166.23 47.23 175 55 186.09 55c6.25 0 12.36-2.47 16-6.67z"/><path fill="#fff" d="M45.13 10.79L18.12 45.31h12.09l26.52-34.52h-11.6z" opacity=".65"/></svg>
