<svg id="logo" xmlns="http://www.w3.org/2000/svg" viewBox="0 0 971.5 265.7">
  <path fill="#283663" d="M890.6 264.3c-25.8 0-49.4-9-66.4-25.5-17.7-17.1-27.1-40.4-27.1-67.4 0-25.4 8.4-49 23.8-66.3 15.9-18 38.3-27.9 63.1-27.9 24.4 0 46.5 9.4 62.1 26.5 17.6 19.2 25.9 46.8 23.6 77.8H841.4l.2 1.7c3 27.6 23.5 46.2 51 46.2 23.1 0 40.1-13.9 47.2-21l25.2 25.2c-16.8 19-45.1 30.7-74.4 30.7zm-5.9-152.2c-22 0-38.9 15.6-41 37.9l-.2 1.6h80l-.1-1.6c-1.5-22.3-17.4-37.9-38.7-37.9zM379.8 264.3c-25.8 0-49.4-9-66.4-25.5-17.7-17.1-27.1-40.4-27.1-67.4 0-25.4 8.4-49 23.8-66.3 15.9-18 38.3-27.9 63.1-27.9 24.4 0 46.5 9.4 62.1 26.5 17.6 19.2 25.9 46.8 23.6 77.8H330.6l.2 1.7c3 27.6 23.5 46.2 51 46.2 23.1 0 40.1-13.9 47.2-21l25.2 25.2c-16.8 19-45.2 30.7-74.4 30.7zm-6-152.2c-22 0-38.9 15.6-41 37.9l-.2 1.6h80l-.1-1.6c-1.4-22.3-17.4-37.9-38.7-37.9zM725 260V6.7h41.5V260H725zm-105.4 0V117.7h-63.8V260h-41.5V117.7H473V81.5h41.2V32.3h41.5v49.2h63.8V32.3H661v49.2h41.2v36.2H661V260h-41.4zm-531.4 0v-39.5H270V260H88.2zm-78.1 0V88.2h41.5V260H10.1zM30.8 60.2C14.6 60.2 1.4 47 1.4 30.8S14.6 1.4 30.8 1.4s29.4 13.2 29.4 29.4-13.1 29.4-29.4 29.4zm60.7-9.6V11H270v39.5H91.5z"/>
  <path fill="#8C7CC4" d="M214.5 50.6L88.2 220.4H146L270 50.6z"/>
</svg>
