<svg xmlns="http://www.w3.org/2000/svg" viewBox="0 0 203 55"><path fill="#fff" d="M186.35 55a19.85 19.85 0 0 1-13.92-5.33 19 19 0 0 1-5.69-14.1 20.84 20.84 0 0 1 5-13.88A18 18 0 0 1 198 21.4c3.69 4 5.44 9.79 4.94 16.29H176v.34a10.38 10.38 0 0 0 10.69 9.67 14.49 14.49 0 0 0 9.89-4.39l5.28 5.27c-3.44 3.97-9.38 6.42-15.51 6.42zm-1.25-31.85a8.48 8.48 0 0 0-8.61 7.94v.34h16.77v-.33c-.36-4.68-3.69-7.95-8.16-7.95zM79.29 55a19.85 19.85 0 0 1-13.92-5.33 19 19 0 0 1-5.69-14.1 20.84 20.84 0 0 1 5-13.88 18 18 0 0 1 26.26-.29c3.69 4 5.44 9.79 4.94 16.29H69V38a10.38 10.38 0 0 0 10.71 9.7 14.47 14.47 0 0 0 9.89-4.39l5.28 5.27C91.36 52.55 85.42 55 79.29 55zM78 23.15a8.48 8.48 0 0 0-8.6 7.94v.34h16.77v-.33c-.32-4.68-3.66-7.95-8.17-7.95zm73.59 31v-53h8.7v53zm-22.08 0V24.34h-13.34V54.1h-8.7V24.34h-8.64v-7.58h8.64V6.47h8.7v10.29h13.38V6.47h8.7v10.29h8.64v7.58h-8.64V54.1zm-111.37 0v-8.33h38.1v8.28zm-16.37 0v-36h8.71v36zm4.39-41.84a6.16 6.16 0 1 1 6.17-6.16 6.16 6.16 0 0 1-6.17 6.16zm12.72-2V2h37.4v8.27z"/><path fill="#b5a8e5" d="M44.65 10.29L18.18 45.82H30.3l25.98-35.53H44.65z"/></svg>
