<svg id="Main_lockup._90_of_all_communication" data-name="Main lockup. 90% of all communication" xmlns="http://www.w3.org/2000/svg" viewBox="0 0 1220 484.41"><defs><style>.cls-1{fill:#283663;}.cls-2{fill:#a391e0;}</style></defs><title>iZettle-logotype-endorsment-posetive</title><path class="cls-1" d="M675.59,510.32l-5.44,10.56h-6.79L688,474.72h6.11l10,46.16h-6.53l-2.18-10.56Zm14.16-27.22-11.39,21.78h15.83Z" transform="translate(-64.46 -53.14)"/><path class="cls-1" d="M1098.22,516.86a12,12,0,0,0,6-1.34,8.86,8.86,0,0,0,3.51-3.52,9.43,9.43,0,0,0,1.18-4.44,5.33,5.33,0,0,0-1.09-3.44,11.07,11.07,0,0,0-3.77-2.76l-5.87-2.51c-3.26-1.51-5.69-3.1-7.12-4.86a9.81,9.81,0,0,1-2.17-6.37,12.54,12.54,0,0,1,2.09-7.2,13,13,0,0,1,5.78-4.78,21.27,21.27,0,0,1,8.55-1.67,24.64,24.64,0,0,1,7,1.09,15,15,0,0,1,5.28,3.1l-1,6.19a17.85,17.85,0,0,0-12-4.77,10.44,10.44,0,0,0-6.78,2.09,6.6,6.6,0,0,0-2.68,5.28,4.08,4.08,0,0,0,1.34,3.1,16.07,16.07,0,0,0,4.77,2.85l5.7,2.51a17,17,0,0,1,6.53,4.95,10.5,10.5,0,0,1,1.93,6.28,16.39,16.39,0,0,1-1.84,7.79,13.93,13.93,0,0,1-5.87,5.78,20.81,20.81,0,0,1-10.3,2.26c-5.78,0-10.3-1.42-13.57-4.36l1.09-6.61a19.14,19.14,0,0,0,13.23,5.36" transform="translate(-64.46 -53.14)"/><path class="cls-1" d="M1148.07,491.06a13.72,13.72,0,0,1,3.35,9.46,30,30,0,0,1-.17,3.19c-.16.83-.33,1.84-.67,3h-25.13c-.17,3.35.75,5.95,2.6,7.71s4.44,2.68,7.62,2.68a20,20,0,0,0,6.12-.84,25.91,25.91,0,0,0,5.44-2.51l-.84,5a21,21,0,0,1-12.14,3.51,15,15,0,0,1-8-2,12.83,12.83,0,0,1-5.11-5.44,17.22,17.22,0,0,1-1.76-7.79,20,20,0,0,1,2.18-8.88,19.73,19.73,0,0,1,6.53-7.71,17.85,17.85,0,0,1,10.72-3.1c3.86.08,7,1.26,9.22,3.69m-17.59,4.18a14.84,14.84,0,0,0-4.36,6.71h19.44a7.64,7.64,0,0,0,.08-1.51,8.2,8.2,0,0,0-2-5.87,7.53,7.53,0,0,0-5.7-2.17,11.42,11.42,0,0,0-7.45,2.84" transform="translate(-64.46 -53.14)"/><path class="cls-1" d="M1172,493.49a8.94,8.94,0,0,0-6.7,2.84c-1.85,1.93-3,4.7-3.61,8.3l-2.59,16.5h-6l5.19-32.67h5.78l-.83,5.53c2.68-3.86,5.86-5.78,9.63-5.78a22.55,22.55,0,0,1,2.6.17l-.84,5.19c-.92,0-1.76-.08-2.68-.08" transform="translate(-64.46 -53.14)"/><polygon class="cls-1" points="1125.41 468 1119.88 468 1112.09 435.41 1118.12 435.41 1123.65 460.87 1137.22 435.41 1143.42 435.41 1125.41 468"/><path class="cls-1" d="M1211.57,521.13h-6l5-32.67h6Zm.67-38.95a3.29,3.29,0,0,1-.92-2.35,3.91,3.91,0,0,1,1.34-3,4.46,4.46,0,0,1,3.1-1.25,3.41,3.41,0,0,1,2.34.92,3.28,3.28,0,0,1,.92,2.35,4.12,4.12,0,0,1-1.34,3,4.51,4.51,0,0,1-3.1,1.34,2.92,2.92,0,0,1-2.34-1" transform="translate(-64.46 -53.14)"/><path class="cls-1" d="M1225.48,520.38a14.79,14.79,0,0,1-5.2-5.45,15.51,15.51,0,0,1-1.84-7.62,20.89,20.89,0,0,1,2.34-9.8,18.57,18.57,0,0,1,6.87-7.29,20,20,0,0,1,10.64-2.77,14.91,14.91,0,0,1,9.55,2.94l-1,6.11a11.62,11.62,0,0,0-8.88-3.6,12.53,12.53,0,0,0-7,2,13.4,13.4,0,0,0-4.69,5.19,15.11,15.11,0,0,0-1.67,6.87,10.43,10.43,0,0,0,2.51,7.29,9,9,0,0,0,6.95,2.77,16.06,16.06,0,0,0,5.53-1,14.9,14.9,0,0,0,4.86-2.93l-.92,6.2a19.7,19.7,0,0,1-5.19,2.51,20.17,20.17,0,0,1-5.53.75,15.35,15.35,0,0,1-7.37-2.17" transform="translate(-64.46 -53.14)"/><path class="cls-1" d="M1277.5,491.06a13.72,13.72,0,0,1,3.35,9.46,30,30,0,0,1-.17,3.19c-.17.83-.33,1.84-.67,3h-25.13c-.17,3.35.75,5.95,2.6,7.71s4.44,2.68,7.62,2.68a20,20,0,0,0,6.12-.84,25.91,25.91,0,0,0,5.44-2.51l-.84,5a21,21,0,0,1-12.14,3.51,15,15,0,0,1-8-2,13.62,13.62,0,0,1-5.2-5.44,17.22,17.22,0,0,1-1.76-7.79,20,20,0,0,1,2.18-8.88,19.76,19.76,0,0,1,6.54-7.71,17.85,17.85,0,0,1,10.72-3.1c3.94.08,7.12,1.26,9.3,3.69m-17.59,4.18a14.84,14.84,0,0,0-4.36,6.71H1275a6.81,6.81,0,0,0,.09-1.51,8.2,8.2,0,0,0-2-5.87,7.53,7.53,0,0,0-5.7-2.17,11.58,11.58,0,0,0-7.45,2.84" transform="translate(-64.46 -53.14)"/><path class="cls-1" d="M954.14,450.76H928.75a3.44,3.44,0,0,0-3.43,2.93L915,518.7a2.12,2.12,0,0,0,2.1,2.43h13a2.51,2.51,0,0,0,2.43-2.09l2.93-18.43a3.52,3.52,0,0,1,3.44-2.94h8c16.67,0,26.31-8,28.82-24q1.75-10.56-3.27-16.33c-3.52-4.28-9.88-6.54-18.34-6.54M957,474.55c-1.42,9.13-8.29,9.13-15.08,9.13h-3.85l2.68-17a2.09,2.09,0,0,1,2.1-1.76h1.76c4.6,0,8.88,0,11.14,2.6,1.42,1.5,1.76,3.77,1.25,7" transform="translate(-64.46 -53.14)"/><path class="cls-1" d="M773.44,450.76h-25.3a3.45,3.45,0,0,0-3.44,2.93l-10.3,65a2.11,2.11,0,0,0,2.09,2.43h12.07A3.44,3.44,0,0,0,752,518.2l2.77-17.51a3.5,3.5,0,0,1,3.43-2.93h8c16.67,0,26.31-8,28.82-24q1.76-10.56-3.27-16.34c-3.43-4.36-9.88-6.62-18.34-6.62m2.93,23.79c-1.42,9.13-8.29,9.13-15.08,9.13h-3.85l2.68-17a2.08,2.08,0,0,1,2.09-1.76H764c4.61,0,8.88,0,11.14,2.6,1.34,1.5,1.76,3.77,1.26,7" transform="translate(-64.46 -53.14)"/><path class="cls-1" d="M849.17,474.22H837a2.14,2.14,0,0,0-2.09,1.76l-.51,3.35-.83-1.26c-2.6-3.85-8.46-5.11-14.33-5.11-13.4,0-24.88,10.14-27.06,24.38-1.17,7.12.51,13.91,4.53,18.6,3.68,4.35,9,6.2,15.24,6.2a23.06,23.06,0,0,0,16.76-7l-.5,3.35a2.11,2.11,0,0,0,2.09,2.43h10.89a3.43,3.43,0,0,0,3.43-2.93l6.54-41.55a2,2,0,0,0-2-2.26m-16.92,23.62a13.5,13.5,0,0,1-13.66,11.56c-3.52,0-6.37-1.17-8.12-3.26s-2.43-5.11-1.93-8.55A13.55,13.55,0,0,1,822.11,486a9.53,9.53,0,0,1,10.14,11.89" transform="translate(-64.46 -53.14)"/><path class="cls-1" d="M1029.78,474.22h-12.14a2.15,2.15,0,0,0-2.1,1.76l-.5,3.35-.84-1.26c-2.6-3.85-8.46-5.11-14.32-5.11-13.41,0-24.89,10.14-27.06,24.38-1.18,7.12.5,13.91,4.52,18.6,3.69,4.35,9,6.2,15.25,6.2a23,23,0,0,0,16.75-7l-.5,3.35a2.11,2.11,0,0,0,2.09,2.43h10.89a3.44,3.44,0,0,0,3.44-2.93l6.53-41.55a2,2,0,0,0-2-2.26m-16.92,23.62a13.49,13.49,0,0,1-13.65,11.56c-3.52,0-6.37-1.17-8.13-3.26s-2.43-5.11-1.93-8.55A13.55,13.55,0,0,1,1002.72,486a10.66,10.66,0,0,1,8.13,3.26,10.41,10.41,0,0,1,2,8.63" transform="translate(-64.46 -53.14)"/><path class="cls-1" d="M913.76,474.22H901.53a3.63,3.63,0,0,0-2.94,1.51l-16.75,24.79-7.12-23.79a3.49,3.49,0,0,0-3.35-2.51h-12a2.13,2.13,0,0,0-2,2.76l13.4,39.38L858.13,534.2a2.12,2.12,0,0,0,1.76,3.35H872A3.66,3.66,0,0,0,875,536l40.55-58.47a2.17,2.17,0,0,0-1.76-3.35" transform="translate(-64.46 -53.14)"/><path class="cls-1" d="M1044.11,452.6l-10.39,66.1a2.11,2.11,0,0,0,2.09,2.43h10.48a3.44,3.44,0,0,0,3.43-2.93l10.22-64.93a2.11,2.11,0,0,0-2.09-2.42h-11.73a1.91,1.91,0,0,0-2,1.75" transform="translate(-64.46 -53.14)"/><path class="cls-1" d="M896.53,92H840.61v61.76H764.25V92H708.33v61.76H656.58V203h51.75V381.56h55.92V203h76.36V381.56h55.92V203h51.75V153.71H896.53ZM580.63,241.76h-96.4c2.5-25.87,22.11-45.9,49.66-45.9s45.07,20.45,46.74,45.9Zm56.75,104.75-34.22-34.22C591.89,324,571,339.41,543.9,339.41c-32.13,0-58.42-21.28-62.18-56.33H642.39c7.09-81.8-43.82-134.8-109.34-134.8-67.19,0-111,55.09-111,120.19C422.05,339.83,474.63,387,541.4,387c37.56,0,74.28-15,96-40.48Zm391.44,35.05V59.81H972.9V381.56Zm-897.59,0V162.05H75.31V381.56Zm274.18,0V328.15h-232v53.41Zm0-262.91V65.24H177.56v53.41ZM64.46,92a38.81,38.81,0,1,0,38.81-38.81A39,39,0,0,0,64.46,92ZM1222,241.76h-96.4c2.5-25.87,22.12-45.9,49.66-45.9s45.07,20.45,46.74,45.9Zm56.76,104.75-34.22-34.22c-11.27,11.68-32.14,27.12-59.26,27.12-32.14,0-58.43-21.28-62.18-56.33H1283.8c7.1-81.8-43.81-134.8-109.33-134.8-67.19,0-111,55.09-111,120.19,0,71.36,52.58,118.52,119.35,118.52,37.56,0,74.28-15,96-40.48Z" transform="translate(-64.46 -53.14)"/><polygon class="cls-2" points="271.26 65.52 108.92 275.01 181.53 275.01 340.95 65.52 271.26 65.52"/></svg>
